HIERARCHY
ROOT Hips
{
	OFFSET -3.958830 18.904000 13.208200
	CHANNELS 6 Xposition Yposition Zposition Zrotation Yrotation Xrotation 
	JOINT LHipJoint
	{
		OFFSET 0.000000 0.000000 0.000000
		CHANNELS 3 Zrotation Yrotation Xrotation
		JOINT LeftUpLeg
		{
			OFFSET 1.800000 -1.400000 0.085000
			CHANNELS 3 Zrotation Yrotation Xrotation
			JOINT LeftLeg
			{
				OFFSET 2.215000 -6.000000 0.000000
				CHANNELS 3 Zrotation Yrotation Xrotation
				JOINT LeftFoot
				{
					OFFSET 2.500000 -6.900000 0.000000
					CHANNELS 3 Zrotation Yrotation Xrotation
					JOINT LeftToeBase
					{
						OFFSET 0.200000 -0.500000 1.950000
						CHANNELS 3 Zrotation Yrotation Xrotation
						End Site
						{
							OFFSET 0.000000 0.000000 0.000000
						}
					}
				}
			}
		}
	}
	JOINT RHipJoint
	{
		OFFSET 0.000000 0.000000 0.000000
		CHANNELS 3 Zrotation Yrotation Xrotation
		JOINT RightUpLeg
		{
			OFFSET -1.800000 -1.400000 0.085000
			CHANNELS 3 Zrotation Yrotation Xrotation
			JOINT RightLeg
			{
				OFFSET -2.215000 -6.000000 0.000000
				CHANNELS 3 Zrotation Yrotation Xrotation
				JOINT RightFoot
				{
					OFFSET -2.500000 -6.900000 0.000000
					CHANNELS 3 Zrotation Yrotation Xrotation
					JOINT RightToeBase
					{
						OFFSET -0.200000 -0.500000 1.950000
						CHANNELS 3 Zrotation Yrotation Xrotation
						End Site
						{
							OFFSET 0.000000 0.000000 0.000000
						}
					}
				}
			}
		}
	}
	JOINT LowerBack
	{
		OFFSET 0.000000 0.000000 0.000000
		CHANNELS 3 Zrotation Yrotation Xrotation
		JOINT Spine
		{
			OFFSET -0.087000 1.940000 -0.288900
			CHANNELS 3 Zrotation Yrotation Xrotation
			JOINT Spine1
			{
				OFFSET 0.000000 1.950000 0.060000
				CHANNELS 3 Zrotation Yrotation Xrotation
				JOINT Neck
				{
					OFFSET 0.000000 0.000000 0.000000
					CHANNELS 3 Zrotation Yrotation Xrotation
					JOINT Neck1
					{
						OFFSET 0.000000 1.600000 0.340000
						CHANNELS 3 Zrotation Yrotation Xrotation
						JOINT Head
						{
							OFFSET 0.000000 1.667000 -0.240000
							CHANNELS 3 Zrotation Yrotation Xrotation
							End Site
							{
								OFFSET 0.000000 0.000000 0.000000
							}
						}
					}
				}
				JOINT LeftShoulder
				{
					OFFSET 0.000000 0.000000 0.000000
					CHANNELS 3 Zrotation Yrotation Xrotation
					JOINT LeftArm
					{
						OFFSET 2.700000 1.550000 -0.730000
						CHANNELS 3 Zrotation Yrotation Xrotation
						JOINT LeftForeArm
						{
							OFFSET 5.450000 0.000000 0.000000
							CHANNELS 3 Zrotation Yrotation Xrotation
							JOINT LeftHand
							{
								OFFSET 3.450000 0.000000 0.000000
								CHANNELS 3 Zrotation Yrotation Xrotation
								JOINT LeftHandIndex1
								{
									OFFSET 0.750000 0.000000 0.000000
									CHANNELS 3 Zrotation Yrotation Xrotation
									End Site
									{
										OFFSET 0.000000 0.000000 0.000000
									}
								}
							}
						}
					}
				}
				JOINT RightShoulder
				{
					OFFSET 0.000000 0.000000 0.000000
					CHANNELS 3 Zrotation Yrotation Xrotation
					JOINT RightArm
					{
						OFFSET -2.700000 1.550000 -0.730000
						CHANNELS 3 Zrotation Yrotation Xrotation
						JOINT RightForeArm
						{
							OFFSET -5.450000 0.000000 0.000000
							CHANNELS 3 Zrotation Yrotation Xrotation
							JOINT RightHand
							{
								OFFSET -3.450000 0.000000 0.000000
								CHANNELS 3 Zrotation Yrotation Xrotation
								JOINT RightHandIndex1
								{
									OFFSET -0.750000 0.000000 0.000000
									CHANNELS 3 Zrotation Yrotation Xrotation
									End Site
									{
										OFFSET 0.000000 0.000000 0.000000
									}
								}
							}
						}
					}
				}
			}
		}
	}
}
MOTION
Frames: 8
Frame Time: 0.016667
14.011920 15.754460 -18.787310 9.306235 59.680657 -4.181453 -15.819692 10.009821 6.666384 36.769157 -9.284858 -8.339091 -58.376416 10.231151 1.871133 0.926537 10.909488 0.863988 0.031590 0.057100 -0.204470 18.276637 -8.458631 1.505780 -20.120906 -2.563073 -31.482502 1.942709 -16.604210 60.918090 -1.143924 -10.410172 0.622967 0.371240 0.701620 0.054320 -2.134625 -2.776304 -9.025816 -7.176491 -1.604131 26.540534 0.403689 -2.123585 23.494607 0.542793 2.493944 -19.701914 7.989228 -23.802759 13.122678 -2.396490 -17.484260 -8.789870 15.105514 -24.524476 5.994523 -22.037337 -14.390386 -12.402250 92.698400 -78.613565 -92.731347 -4.295268 -0.480705 0.103730 0.405110 -0.343750 0.108700 -17.928777 28.998577 20.425529 62.130272 -12.286134 -24.347393 -36.064534 24.876526 -9.370690 2.000810 -2.087647 -0.443370 0.626360 0.349980 0.055350 
13.932580 15.762180 -18.659420 9.360291 57.474918 -4.747892 -15.778071 10.156034 6.441024 36.488878 -8.299029 -5.722188 -52.727571 9.638215 0.924005 0.848364 10.743050 0.978620 -0.014150 -0.023880 -0.207880 18.256865 -8.645786 1.627667 -18.500500 -1.275693 -31.439386 1.736294 -15.812289 61.213887 -1.089188 -10.364899 0.666080 0.346050 0.746040 0.016600 -2.367619 -2.435644 -8.966417 -6.611461 -2.001203 28.963218 -1.254733 -1.864086 18.829590 1.195571 2.075085 -18.941805 8.363450 -24.974111 11.600163 -3.632930 -18.313550 -6.364280 12.825985 -20.890692 2.999201 -18.354524 -9.319327 -16.133271 44.497706 -88.100525 -50.098379 -3.465911 2.188908 0.061640 0.432830 -0.410520 0.123820 -17.013519 26.332796 20.865514 58.975961 -16.248138 -24.785645 -33.666663 29.682248 -9.665661 1.915397 -2.100895 -0.493100 0.633550 0.330160 0.057540 
13.805390 15.878620 -18.387380 13.053227 54.664184 -3.205765 -15.754357 11.237231 5.448416 31.381245 -6.570537 -0.815274 -34.985136 7.739344 -0.360232 0.440954 9.528212 1.425491 -0.009310 -0.048160 -0.178180 18.050912 -9.112898 1.823851 -17.981047 -0.452655 -29.443661 2.334289 -14.990397 59.876338 -1.024587 -10.133861 0.740093 0.332160 0.766550 0.067310 -2.312475 -2.758814 -8.544813 -12.345079 -0.305703 31.551495 1.729009 -3.059625 11.961401 2.207522 2.175743 -17.850339 7.621820 -20.245603 13.011238 -5.134060 -14.722900 -4.745650 13.043293 -11.760756 1.177750 -20.359370 -7.776677 -11.147724 34.129520 -75.576597 -27.949355 -3.538910 2.720338 0.032480 0.485900 -0.430260 0.130660 -19.923234 18.261352 19.514188 49.978974 -13.455347 -18.413530 -28.817367 30.069502 -8.168424 1.883288 -2.079172 -0.484470 0.575050 0.315460 0.041510 
13.814250 16.020460 -18.044240 13.233239 53.763809 2.167308 -15.505833 12.217811 3.772121 24.781565 -3.873820 -1.663924 -12.996304 5.573188 -0.050230 0.002838 6.519933 2.588156 -0.300000 -0.445700 -0.304290 17.927586 -10.361904 2.874342 -16.221995 1.430450 -32.051276 5.324940 -14.966553 55.611655 -0.781701 -9.551709 0.964747 -0.003020 0.748440 0.106270 -3.448615 -0.990617 -8.400586 -6.807451 -2.657521 30.169882 -3.260431 -3.395486 -6.146957 2.419775 1.137286 -17.785971 5.076062 -21.760182 17.122993 -10.060890 -16.592560 2.600200 13.266257 -4.138190 0.120594 -18.307009 -8.688588 -2.242058 12.603175 -46.024061 -2.416578 -3.952546 3.089179 -0.045300 0.503140 -0.485350 0.057530 -22.349062 10.915095 18.426541 47.405283 -20.704417 -18.890368 -19.037390 34.389018 -4.294018 1.951436 -2.065651 -0.428660 0.379000 0.374740 0.068290 
13.837100 16.130890 -17.767280 6.997798 51.423499 1.318668 -15.504366 12.510009 3.679064 24.099838 -3.797969 -0.789847 -3.714632 3.911725 -4.248770 0.023277 5.836689 2.934031 -0.405090 -0.557200 -0.398200 17.842420 -10.305017 3.253955 -11.220539 3.781252 -32.076427 9.096909 -14.998394 50.426167 -0.642235 -8.805281 1.294161 -0.094320 0.820050 0.099940 -3.357001 -1.112614 -8.595306 -0.979769 -6.186014 23.246626 -4.833397 -5.079568 -9.194815 4.218084 0.446386 -17.952293 2.746804 -17.984294 21.354167 -10.861680 -14.450970 5.024240 11.754685 1.291582 -1.468396 -21.853199 -5.097413 -1.931081 21.904742 -30.200307 -2.731873 -4.309884 2.852349 -0.062070 0.538330 -0.512570 0.085270 -25.127568 10.014221 18.766484 36.488137 -11.821453 -10.641862 -15.442977 22.546107 -2.229597 2.179670 -1.913516 -0.448900 0.382040 0.392290 0.102990 
13.617320 16.207380 -17.621580 5.026418 48.003177 -9.453907 -15.511381 12.715797 3.808510 25.087850 -2.721776 8.942367 -1.769045 4.560280 -4.915086 0.159621 6.676405 2.665196 -0.089520 -0.175960 -0.227020 17.840399 -10.680814 2.652118 -8.034725 3.584133 -21.027694 8.661443 -13.703773 48.645160 -0.794068 -8.391485 1.408062 0.164140 0.772360 0.077180 -3.551708 -0.721492 -8.316864 -2.091886 -9.169046 28.315942 -4.405695 -8.843554 3.518200 2.567453 1.476416 -17.510432 3.869298 -9.320478 23.500925 -3.291170 -10.200050 -3.754310 11.456889 0.203420 -0.785905 -9.039092 -1.407435 -0.825620 9.262433 -2.091035 -0.662918 -4.822639 2.047142 0.084380 0.412390 -0.380810 0.163000 -21.668008 11.830855 20.472845 18.184880 4.161123 1.664925 -14.170861 10.725795 -1.655707 2.221277 -1.651728 -0.450730 0.519280 0.288810 0.092910 
13.482860 16.395880 -17.348760 6.299855 47.147512 -6.282942 -15.543604 12.949320 3.817649 21.438280 -2.368741 6.965088 -1.755323 3.980218 -5.552969 0.041872 6.104889 2.735927 0.013810 -0.054630 -0.205240 17.747338 -10.855644 2.730098 -6.197149 3.575313 -20.676831 8.236804 -11.941713 44.157320 -0.682720 -7.384123 1.676771 0.182030 0.640160 0.184300 -3.389377 -0.822552 -8.317865 -4.706940 -9.817695 27.394396 -0.976993 -10.121378 -4.693422 3.057069 1.470033 -15.921663 3.446889 -7.760288 27.640674 -2.564530 -9.270650 -7.054610 7.740409 1.798026 -1.061231 -5.275525 2.086228 -1.027845 13.057208 -1.666268 -0.438353 -4.836650 2.140250 0.165920 0.324000 -0.248200 0.146140 -19.699845 9.351814 16.765545 7.728436 10.847845 4.269205 -8.508611 4.975859 -0.393896 2.259100 -1.442628 -0.326060 0.419280 0.302800 0.090050 
13.344730 16.573150 -17.072740 7.886015 45.645774 -3.265583 -15.565248 13.031187 3.822769 18.751530 -2.053410 5.112164 -4.871089 4.003299 -4.790722 -0.184563 5.977134 2.734777 0.079510 -0.032590 -0.083480 17.703616 -11.014085 2.724342 -4.206667 3.558996 -20.051173 6.343101 -9.823080 40.596339 -0.522344 -6.536912 1.899881 0.254450 0.623980 0.247210 -3.246117 -0.751303 -8.205034 -7.318143 -10.056333 24.632622 1.230406 -10.680409 -8.051911 4.065181 1.355264 -14.619274 3.323685 -6.136121 28.970983 -5.643290 -6.944940 -7.214970 3.942360 2.119959 -0.831667 2.336914 1.983114 0.228646 9.501420 4.673307 -0.628337 -5.161336 1.813121 0.209170 0.366270 -0.236820 0.108040 -17.723378 8.149768 13.752764 1.792910 16.630953 4.216146 -7.763143 -1.696763 -0.485547 2.290322 -1.411034 -0.363300 0.416990 0.322210 0.012640 
